<?xml version="1.0" encoding="utf-8"?>
<!-- Generator: Adobe Illustrator 21.1.0, SVG Export Plug-In . SVG Version: 6.00 Build 0)  -->
<svg version="1.1" id="Capa_1" xmlns="http://www.w3.org/2000/svg" xmlns:xlink="http://www.w3.org/1999/xlink" x="0px" y="0px"
	 viewBox="0 0 137 23" style="enable-background:new 0 0 137 23;" xml:space="preserve">
<style type="text/css">
	.st0{fill:#FF2426;}
	.st1{fill:#FFFFFF;}
	.st2{clip-path:url(#SVGID_2_);fill:#FF2426;}
	.st3{clip-path:url(#SVGID_2_);fill:none;}
	.st4{fill:#FF9F00;}
	.st5{fill:#A42D37;}
	.st6{clip-path:url(#SVGID_4_);fill:#A42D37;}
	.st7{clip-path:url(#SVGID_4_);fill:none;}
	.st8{fill:#D42426;}
	.st9{clip-path:url(#SVGID_6_);fill:#D42426;}
	.st10{clip-path:url(#SVGID_6_);fill:none;}
	.st11{fill:#2290CF;}
	.st12{fill:#084F70;}
	.st13{fill:#A1112A;}
	.st14{fill:#DB921A;}
</style>
<path class="st12" d="M89.3,15c0-0.3,0.1-0.5,0.1-0.8c0-0.2,0-0.5,0-0.7c0-1-0.1-1.9-0.4-2.6c-0.3-0.8-0.6-1.5-1.1-2
	c-0.5-0.6-1.1-1-1.8-1.3C85.4,7.1,84.5,7,83.7,7c-0.8,0-1.5,0.1-2.3,0.4C80.7,7.6,80,8,79.5,8.6c-0.6,0.6-1,1.3-1.4,2.1
	c-0.3,0.9-0.5,1.9-0.5,3.2s0.2,2.3,0.6,3.1c0.4,0.9,0.9,1.5,1.5,2.1c0.6,0.5,1.3,0.9,2.1,1.2c0.8,0.2,1.6,0.4,2.4,0.4
	c0.8,0,1.5-0.1,2.2-0.2c0.7-0.1,1.2-0.3,1.7-0.4c0.6-0.2,1.1-0.4,1.5-0.6l-0.6-2.6c-0.4,0.2-0.8,0.3-1.2,0.4
	c-0.3,0.1-0.7,0.2-1.2,0.3c-0.4,0.1-0.8,0.1-1.2,0.1c-1,0-1.7-0.2-2.3-0.5c-0.6-0.4-0.9-1-1-2H89.3z M82,12.7c0-0.3,0-0.7,0-1.1
	c0-0.4,0.1-0.8,0.2-1.1c0.1-0.3,0.2-0.6,0.4-0.9c0.2-0.2,0.5-0.3,0.8-0.3c0.5,0,0.9,0.3,1.1,0.8c0.2,0.5,0.3,1.4,0.3,2.6H82z
	 M72.4,14.9c0,0.5-0.1,0.9-0.2,1.3c-0.1,0.4-0.2,0.8-0.4,1c-0.2,0.3-0.5,0.4-0.8,0.4c-0.1,0-0.3,0-0.4-0.1c-0.2,0-0.3-0.1-0.5-0.2
	V9.9c0.2-0.1,0.4-0.1,0.5-0.2c0.2,0,0.3-0.1,0.4-0.1c0.4,0,0.6,0.1,0.8,0.4c0.2,0.3,0.3,0.6,0.4,1c0.1,0.4,0.1,0.8,0.2,1.3
	c0,0.5,0,0.9,0,1.3C72.5,14,72.5,14.5,72.4,14.9 M76.5,8.7C75.8,7.6,74.8,7,73.4,7c-0.5,0-1.1,0.1-1.6,0.3c-0.6,0.2-1.1,0.5-1.8,0.9
	V2.4h-4.8v17.9H70v-1c0.6,0.4,1.2,0.7,1.7,0.9c0.5,0.2,1.1,0.3,1.6,0.3c0.7,0,1.3-0.2,1.9-0.5c0.5-0.3,1-0.8,1.3-1.4
	c0.3-0.6,0.6-1.3,0.8-2.2c0.2-0.9,0.3-1.8,0.3-2.8C77.5,11.5,77.2,9.9,76.5,8.7 M59,18c-0.2,0.1-0.5,0.1-0.8,0.1
	c-0.2,0-0.4,0-0.5-0.1c-0.2,0-0.3-0.1-0.5-0.3c-0.1-0.1-0.3-0.3-0.3-0.5c-0.1-0.2-0.1-0.5-0.1-0.8c0-0.5,0.1-0.8,0.2-1.1
	c0.1-0.3,0.3-0.5,0.6-0.6c0.2-0.1,0.5-0.2,0.7-0.2c0.3,0,0.5,0,0.8,0V18z M65.1,18.1c-0.6,0-1-0.1-1.2-0.3c-0.2-0.2-0.2-0.5-0.2-0.9
	v-6.1c0-0.8-0.1-1.4-0.4-1.9c-0.3-0.5-0.7-0.9-1.1-1.2c-0.5-0.3-1-0.5-1.6-0.6c-0.6-0.1-1.3-0.2-1.9-0.2c-0.7,0-1.5,0.1-2.2,0.2
	c-0.7,0.1-1.4,0.2-2,0.4c-0.7,0.2-1.3,0.3-2,0.5l0.5,2.9c0.4-0.1,0.9-0.2,1.4-0.3c0.4-0.1,0.9-0.2,1.3-0.2c0.5-0.1,0.9-0.1,1.4-0.1
	c0.5,0,1,0.1,1.4,0.2c0.4,0.1,0.6,0.4,0.6,0.9v1.5c-0.1,0-0.2,0-0.4,0c-0.2,0-0.4,0-0.6,0c-0.5,0-1.1,0-1.8,0.1
	c-0.7,0.1-1.3,0.3-1.9,0.5c-0.6,0.3-1.1,0.7-1.5,1.2c-0.4,0.5-0.6,1.2-0.6,2c0,0.7,0.1,1.3,0.4,1.8c0.3,0.5,0.6,0.9,1,1.2
	c0.4,0.3,0.9,0.5,1.5,0.7c0.5,0.1,1.1,0.2,1.7,0.2c0.8,0,1.6-0.1,2.4-0.3c0.8-0.2,1.4-0.5,1.9-0.8c0.3,0.4,0.6,0.7,1.1,0.9
	c0.4,0.2,1,0.3,1.6,0.3c0.2,0,0.5,0,0.7,0c0.3,0,0.5-0.1,0.8-0.1L65.1,18.1z M51.7,14.1c-0.3-0.6-0.7-1-1.2-1.3
	c-0.5-0.3-1-0.5-1.6-0.7c-0.6-0.1-1.1-0.3-1.6-0.4c-0.5-0.1-0.9-0.2-1.2-0.4c-0.3-0.1-0.5-0.3-0.5-0.6c0-0.2,0.1-0.4,0.4-0.6
	c0.3-0.1,0.7-0.2,1.3-0.2c0.5,0,1,0,1.5,0.1c0.5,0.1,0.9,0.2,1.3,0.3c0.4,0.1,0.8,0.3,1.2,0.5L51.9,8c-0.4-0.2-0.9-0.3-1.4-0.5
	c-0.4-0.1-1-0.2-1.6-0.4C48.2,7,47.5,7,46.7,7C46.1,7,45.6,7,45,7.1c-0.6,0.1-1.2,0.3-1.7,0.7C42.7,8.1,42.3,8.5,42,9
	c-0.3,0.5-0.5,1.2-0.5,2c0,0.9,0.2,1.6,0.5,2.1c0.3,0.5,0.7,1,1.2,1.3c0.5,0.3,1,0.5,1.6,0.7c0.6,0.2,1.1,0.3,1.6,0.4
	c0.5,0.1,0.9,0.3,1.2,0.4c0.3,0.1,0.5,0.4,0.5,0.7c0,0.3-0.1,0.5-0.4,0.7c-0.3,0.1-0.6,0.2-1.1,0.2c-0.6,0-1.1-0.1-1.7-0.2
	c-0.6-0.1-1-0.2-1.5-0.4c-0.5-0.2-1-0.4-1.4-0.6l-0.7,3c0.4,0.2,0.9,0.4,1.4,0.6c0.5,0.1,1,0.3,1.6,0.4c0.6,0.1,1.3,0.2,2.1,0.2
	c0.8,0,1.6-0.1,2.3-0.3c0.7-0.2,1.3-0.4,1.8-0.8c0.5-0.4,0.9-0.8,1.2-1.3c0.3-0.5,0.4-1.2,0.4-1.9C52.2,15.4,52,14.7,51.7,14.1"/>
<path class="st11" d="M37,7.3h-4.5v13H37V7.3z M31.7,2.4h-4.5v17.9h4.5V2.4z M21,18c-0.2,0.1-0.5,0.1-0.8,0.1c-0.2,0-0.4,0-0.5-0.1
	c-0.2,0-0.3-0.1-0.5-0.3c-0.1-0.1-0.3-0.3-0.3-0.5c-0.1-0.2-0.1-0.5-0.1-0.8c0-0.5,0.1-0.8,0.2-1.1c0.1-0.3,0.3-0.5,0.6-0.6
	c0.2-0.1,0.5-0.2,0.7-0.2c0.3,0,0.5,0,0.8,0V18z M27.1,18.1c-0.6,0-1-0.1-1.2-0.3c-0.2-0.2-0.2-0.5-0.2-0.9v-6.1
	c0-0.8-0.1-1.4-0.4-1.9c-0.3-0.5-0.7-0.9-1.1-1.2c-0.5-0.3-1-0.5-1.6-0.6c-0.6-0.1-1.3-0.2-1.9-0.2c-0.7,0-1.5,0.1-2.2,0.2
	c-0.7,0.1-1.4,0.2-2,0.4c-0.7,0.2-1.3,0.3-2,0.5l0.5,2.9c0.4-0.1,0.9-0.2,1.4-0.3c0.4-0.1,0.9-0.2,1.3-0.2c0.5-0.1,0.9-0.1,1.4-0.1
	c0.5,0,1,0.1,1.4,0.2c0.4,0.1,0.6,0.4,0.6,0.9v1.5c-0.1,0-0.2,0-0.4,0c-0.2,0-0.4,0-0.6,0c-0.5,0-1.1,0-1.8,0.1
	c-0.7,0.1-1.3,0.3-1.9,0.5c-0.6,0.3-1.1,0.7-1.5,1.2c-0.4,0.5-0.6,1.2-0.6,2c0,0.7,0.1,1.3,0.4,1.8c0.3,0.5,0.6,0.9,1,1.2
	c0.4,0.3,0.9,0.5,1.5,0.7c0.5,0.1,1.1,0.2,1.7,0.2c0.8,0,1.6-0.1,2.4-0.3c0.8-0.2,1.4-0.5,1.9-0.8c0.3,0.4,0.6,0.7,1.1,0.9
	c0.4,0.2,1,0.3,1.6,0.3c0.2,0,0.5,0,0.7,0c0.3,0,0.5-0.1,0.8-0.1L27.1,18.1z M2.3,16.1c0.5,1.1,1.1,2,1.8,2.7
	c0.8,0.7,1.6,1.1,2.5,1.4c0.9,0.3,1.9,0.4,2.8,0.4c0.7,0,1.3,0,1.9-0.1c0.5-0.1,1-0.1,1.4-0.2c0.4-0.1,0.8-0.2,1.2-0.3l-0.2-3.3
	c-0.3,0.1-0.6,0.1-0.9,0.2c-0.3,0-0.6,0.1-0.9,0.1c-0.3,0-0.6,0-0.9,0c-0.7,0-1.4-0.1-1.9-0.2c-0.6-0.2-1-0.4-1.4-0.8
	c-0.4-0.4-0.6-0.9-0.8-1.6c-0.2-0.7-0.3-1.5-0.3-2.4c0-1,0.1-1.8,0.3-2.4C7,8.7,7.3,8.2,7.7,7.8C8,7.4,8.5,7.1,9.1,6.9
	c0.6-0.2,1.2-0.3,1.9-0.3c0.3,0,0.6,0,0.9,0.1c0.3,0,0.6,0.1,0.9,0.1C13.1,6.9,13.4,7,13.7,7l0.2-3.3c-0.3-0.1-0.7-0.2-1.2-0.3
	c-0.4-0.1-0.8-0.2-1.4-0.2C10.8,3.1,10.2,3,9.5,3C8.6,3,7.6,3.2,6.7,3.4C5.8,3.7,4.9,4.2,4.2,4.8C3.4,5.5,2.8,6.4,2.3,7.5
	c-0.5,1.1-0.7,2.6-0.7,4.3C1.6,13.5,1.9,14.9,2.3,16.1"/>
<path class="st11" d="M135.4,20.3v-9.2c0-0.8-0.1-1.4-0.3-1.9c-0.2-0.5-0.4-0.9-0.7-1.2c-0.3-0.3-0.6-0.5-1-0.7
	c-0.4-0.1-0.8-0.2-1.3-0.2c-0.7,0-1.4,0.1-2.1,0.4c-0.7,0.3-1.3,0.6-1.8,1V7.3h-4.5v13h4.6v-9.9c0.2-0.1,0.4-0.2,0.6-0.2
	c0.2-0.1,0.5-0.1,0.7-0.1c0.3,0,0.5,0.1,0.7,0.2c0.2,0.2,0.3,0.4,0.3,0.9v9.1H135.4z M123.1,15c0-0.3,0.1-0.5,0.1-0.8
	c0-0.2,0-0.5,0-0.7c0-1-0.1-1.9-0.4-2.6c-0.3-0.8-0.6-1.5-1.1-2c-0.5-0.6-1.1-1-1.8-1.3c-0.7-0.3-1.5-0.5-2.4-0.5
	c-0.8,0-1.5,0.1-2.3,0.4c-0.7,0.3-1.4,0.7-1.9,1.2c-0.6,0.6-1,1.3-1.4,2.1c-0.3,0.9-0.5,1.9-0.5,3.2c0,1.2,0.2,2.3,0.6,3.1
	c0.4,0.9,0.9,1.5,1.5,2.1c0.6,0.5,1.3,0.9,2.1,1.2c0.8,0.2,1.6,0.4,2.4,0.4c0.8,0,1.5-0.1,2.2-0.2c0.7-0.1,1.2-0.3,1.7-0.4
	c0.6-0.2,1.1-0.4,1.5-0.6l-0.6-2.6c-0.4,0.2-0.8,0.3-1.2,0.4c-0.3,0.1-0.7,0.2-1.2,0.3c-0.4,0.1-0.8,0.1-1.2,0.1
	c-1,0-1.7-0.2-2.3-0.5c-0.6-0.4-0.9-1-1-2H123.1z M115.8,12.7c0-0.3,0-0.7,0-1.1c0-0.4,0.1-0.8,0.2-1.1c0.1-0.3,0.2-0.6,0.4-0.9
	c0.2-0.2,0.5-0.3,0.8-0.3c0.5,0,0.9,0.3,1.1,0.8c0.2,0.5,0.3,1.4,0.3,2.6H115.8z M110.9,7.3h-4.5v13h4.5V7.3z M110.9,2.4h-4.6v3.2
	h4.6V2.4z M37,2.4h-4.6v3.2H37V2.4z M100.8,14.9c0,0.5-0.1,0.9-0.2,1.3c-0.1,0.4-0.2,0.8-0.4,1c-0.2,0.3-0.5,0.4-0.8,0.4
	c-0.1,0-0.3,0-0.4-0.1c-0.2,0-0.3-0.1-0.5-0.2V9.9c0.2-0.1,0.4-0.1,0.5-0.2c0.2,0,0.3-0.1,0.4-0.1c0.4,0,0.6,0.1,0.8,0.4
	c0.2,0.3,0.3,0.6,0.4,1c0.1,0.4,0.1,0.8,0.2,1.3c0,0.5,0,0.9,0,1.3C100.8,14,100.8,14.5,100.8,14.9 M104.9,8.7
	c-0.7-1.2-1.7-1.8-3.1-1.8c-0.5,0-1.1,0.1-1.6,0.3c-0.6,0.2-1.1,0.5-1.8,0.9V2.4h-4.8v17.9h4.8v-1c0.6,0.4,1.2,0.7,1.7,0.9
	c0.5,0.2,1.1,0.3,1.6,0.3c0.7,0,1.3-0.2,1.9-0.5c0.5-0.3,1-0.8,1.3-1.4c0.3-0.6,0.6-1.3,0.8-2.2c0.2-0.9,0.3-1.8,0.3-2.8
	C105.9,11.5,105.6,9.9,104.9,8.7"/>
</svg>
