<?xml version="1.0" encoding="utf-8"?>
<!-- Generator: Adobe Illustrator 21.0.0, SVG Export Plug-In . SVG Version: 6.00 Build 0)  -->
<svg version="1.1" id="Capa_1" xmlns="http://www.w3.org/2000/svg" xmlns:xlink="http://www.w3.org/1999/xlink" x="0px" y="0px"
	 viewBox="0 0 105 100" style="enable-background:new 0 0 105 100;" xml:space="preserve">
<style type="text/css">
	.st0{fill:#FFFFFF;}
</style>
<g>
	<g>
		<path class="st0" d="M84.5,65.1c-4.9,0-9.3,2.1-12.4,5.3L35.6,52.6c0.1-0.8,0.2-1.7,0.2-2.6c0-0.9-0.1-1.7-0.2-2.5L72,29.9
			c3.1,3.3,7.5,5.4,12.4,5.4c9.5,0,17.1-7.7,17.1-17.1C101.6,8.7,93.9,1,84.5,1S67.3,8.7,67.3,18.1c0,0.9,0.1,1.7,0.2,2.5L31.1,38.3
			c-3.1-3.3-7.5-5.4-12.4-5.4C9.2,32.9,1.6,40.6,1.6,50c0,9.5,7.7,17.1,17.1,17.1c4.9,0,9.3-2.1,12.4-5.3l36.4,17.8
			c-0.1,0.8-0.2,1.7-0.2,2.6c0,9.5,7.7,17.1,17.1,17.1s17.1-7.7,17.1-17.1C101.6,72.7,93.9,65.1,84.5,65.1z"/>
	</g>
</g>
</svg>
